<svg width="1480" height="860" viewBox="0 0 1480 860" xmlns="http://www.w3.org/2000/svg" role="img" aria-labelledby="title desc">
  <title id="title">ChatX UI overview</title>
  <desc id="desc">ChatX workspace sxematik interfeisi</desc>
  <defs>
    <linearGradient id="bg" x1="0%" y1="0%" x2="100%" y2="100%">
      <stop offset="0%" stop-color="#F0F9FF"/>
      <stop offset="100%" stop-color="#E0F2FE"/>
    </linearGradient>
    <filter id="shadow" x="-20%" y="-20%" width="140%" height="140%">
      <feDropShadow dx="0" dy="8" stdDeviation="10" flood-color="#0369A1" flood-opacity="0.2"/>
    </filter>
  </defs>

  <rect width="1480" height="860" fill="url(#bg)"/>

  <text x="58" y="62" font-family="Segoe UI, Arial, sans-serif" font-size="34" font-weight="700" fill="#0C4A6E">
    ChatX Workspace - UI Overview (Schematic)
  </text>

  <g transform="translate(52,92)" filter="url(#shadow)">
    <rect x="0" y="0" width="1376" height="716" rx="24" ry="24" fill="#FFFFFF" stroke="#BAE6FD"/>

    <rect x="26" y="24" width="1324" height="84" rx="16" ry="16" fill="#F0F9FF" stroke="#BFDBFE"/>
    <text x="52" y="74" font-family="Segoe UI, Arial, sans-serif" font-size="28" font-weight="700" fill="#0F172A">Topbar</text>
    <rect x="930" y="46" width="156" height="38" rx="10" ry="10" fill="#DCFCE7"/>
    <text x="1008" y="70" text-anchor="middle" font-family="Segoe UI, Arial, sans-serif" font-size="16" fill="#166534">Health: available</text>
    <rect x="1104" y="46" width="126" height="38" rx="10" ry="10" fill="#DBEAFE"/>
    <text x="1167" y="70" text-anchor="middle" font-family="Segoe UI, Arial, sans-serif" font-size="16" fill="#1D4ED8">WS: connected</text>

    <rect x="26" y="126" width="410" height="562" rx="16" ry="16" fill="#F8FAFC" stroke="#E2E8F0"/>
    <text x="50" y="160" font-family="Segoe UI, Arial, sans-serif" font-size="22" font-weight="700" fill="#334155">Sidebar</text>

    <rect x="46" y="178" width="370" height="96" rx="12" ry="12" fill="#EFF6FF" stroke="#BFDBFE"/>
    <text x="62" y="208" font-family="Segoe UI, Arial, sans-serif" font-size="17" fill="#1E3A8A">Actions</text>
    <rect x="62" y="220" width="166" height="38" rx="10" ry="10" fill="#0EA5E9"/>
    <text x="145" y="244" text-anchor="middle" font-family="Segoe UI, Arial, sans-serif" font-size="15" fill="#FFFFFF">Private Chat</text>
    <rect x="244" y="220" width="166" height="38" rx="10" ry="10" fill="#0284C7"/>
    <text x="327" y="244" text-anchor="middle" font-family="Segoe UI, Arial, sans-serif" font-size="15" fill="#FFFFFF">Group Chat</text>

    <rect x="46" y="292" width="370" height="188" rx="12" ry="12" fill="#FFFFFF" stroke="#CBD5E1"/>
    <text x="62" y="324" font-family="Segoe UI, Arial, sans-serif" font-size="17" fill="#1F2937">Chat list</text>
    <rect x="62" y="338" width="338" height="36" rx="9" ry="9" fill="#F1F5F9"/>
    <rect x="62" y="384" width="338" height="40" rx="9" ry="9" fill="#E0F2FE"/>
    <rect x="62" y="432" width="338" height="40" rx="9" ry="9" fill="#F8FAFC"/>

    <rect x="46" y="496" width="370" height="174" rx="12" ry="12" fill="#FFFFFF" stroke="#CBD5E1"/>
    <text x="62" y="528" font-family="Segoe UI, Arial, sans-serif" font-size="17" fill="#1F2937">Users</text>
    <rect x="62" y="544" width="338" height="36" rx="9" ry="9" fill="#F1F5F9"/>
    <rect x="62" y="590" width="338" height="32" rx="9" ry="9" fill="#F8FAFC"/>
    <rect x="62" y="630" width="338" height="32" rx="9" ry="9" fill="#F8FAFC"/>

    <rect x="454" y="126" width="896" height="562" rx="16" ry="16" fill="#F8FAFC" stroke="#E2E8F0"/>
    <text x="478" y="160" font-family="Segoe UI, Arial, sans-serif" font-size="22" font-weight="700" fill="#334155">Chat Pane</text>

    <rect x="474" y="178" width="856" height="86" rx="12" ry="12" fill="#FFFFFF" stroke="#CBD5E1"/>
    <text x="494" y="210" font-family="Segoe UI, Arial, sans-serif" font-size="18" fill="#111827">Active chat meta</text>
    <rect x="1060" y="198" width="106" height="34" rx="9" ry="9" fill="#DBEAFE"/>
    <rect x="1176" y="198" width="154" height="34" rx="9" ry="9" fill="#DCFCE7"/>

    <rect x="474" y="278" width="856" height="322" rx="12" ry="12" fill="#FFFFFF" stroke="#CBD5E1"/>
    <text x="494" y="310" font-family="Segoe UI, Arial, sans-serif" font-size="18" fill="#111827">Messages</text>
    <rect x="506" y="332" width="448" height="58" rx="12" ry="12" fill="#ECFEFF"/>
    <rect x="850" y="406" width="448" height="58" rx="12" ry="12" fill="#DBEAFE"/>
    <rect x="506" y="480" width="398" height="58" rx="12" ry="12" fill="#ECFEFF"/>

    <rect x="474" y="616" width="856" height="56" rx="12" ry="12" fill="#FFFFFF" stroke="#CBD5E1"/>
    <rect x="496" y="628" width="686" height="32" rx="9" ry="9" fill="#F1F5F9"/>
    <rect x="1194" y="628" width="116" height="32" rx="9" ry="9" fill="#0EA5E9"/>
    <text x="1252" y="649" text-anchor="middle" font-family="Segoe UI, Arial, sans-serif" font-size="15" fill="#FFFFFF">Send</text>
  </g>
</svg>
